<svg width="9" height="14" viewBox="0 0 9 14" fill="none" xmlns="http://www.w3.org/2000/svg">
<path d="M5.33203 5.72282H8.33203L7.9987 7.05615H5.33203V13.0562H3.9987V7.05615H1.33203V5.72282H3.9987V4.47482C3.9987 3.28615 4.1227 2.85482 4.3547 2.42015C4.58204 1.99069 4.93323 1.63949 5.3627 1.41215C5.79736 1.18015 6.2287 1.05615 7.41736 1.05615C7.76536 1.05615 8.0707 1.08949 8.33203 1.15615V2.38949H7.41736C6.5347 2.38949 6.26603 2.44149 5.99203 2.58815C5.78936 2.69615 5.6387 2.84682 5.5307 3.04949C5.38403 3.32349 5.33203 3.59215 5.33203 4.47482V5.72282Z" fill="white" stroke="white" stroke-width="0.8"/>
</svg>
