<svg width="13" height="13" viewBox="0 0 13 13" fill="none" xmlns="http://www.w3.org/2000/svg">
<path d="M9.88538 2.64789L9.88536 2.6479L9.88538 2.64789ZM9.88538 2.64789C9.92339 2.62249 9.96809 2.60893 10.0138 2.60893C10.0751 2.60893 10.134 2.63328 10.1774 2.67666L9.88538 2.64789ZM9.65503 4.89557C9.81225 5.27561 9.89277 5.68298 9.89195 6.09424C9.89195 6.71226 9.70873 7.31642 9.36553 7.83039M9.65503 4.89557L8.94973 7.5527M9.65503 4.89557C9.49789 4.51553 9.26706 4.17033 8.97602 3.8798C8.6849 3.58928 8.33923 3.35917 7.95889 3.20271C7.57855 3.04626 7.17103 2.96654 6.75977 2.96814L9.65503 4.89557ZM9.36553 7.83039L8.94973 7.5527M9.36553 7.83039C9.02233 8.34429 8.53443 8.74502 7.96357 8.98178C7.3927 9.21854 6.76446 9.28086 6.15822 9.1607L9.36553 7.83039ZM8.94973 7.5527C9.23805 7.12091 9.39195 6.61338 9.39195 6.09424V6.09325C9.39264 5.74791 9.32502 5.40584 9.193 5.08671L9.19297 5.08663C9.06105 4.76759 8.86724 4.47772 8.62283 4.23372L8.97517 3.88066L8.62278 4.23367C8.37831 3.98971 8.08805 3.79649 7.76868 3.66512C7.44928 3.53373 7.10707 3.46679 6.76172 3.46814L6.76074 3.46814C6.24157 3.46915 5.73434 3.62403 5.30316 3.9132C4.87197 4.20238 4.53617 4.61287 4.3382 5.09281L4.3382 5.09281C4.14022 5.57276 4.08894 6.10062 4.19085 6.60969L4.19085 6.6097C4.29276 7.11877 4.54327 7.58621 4.91073 7.95293L4.91076 7.95296C5.27823 8.31976 5.74614 8.56935 6.25538 8.67023L6.25544 8.67024C6.76467 8.77118 7.29242 8.71884 7.77201 8.51993C8.25156 8.32104 8.66143 7.98441 8.94973 7.5527ZM10.1023 3.05384L10.1024 3.0538C10.1446 3.03633 10.1806 3.00673 10.2061 2.96864L10.2061 2.96863C10.2315 2.93059 10.2451 2.88588 10.2451 2.84018C10.2451 2.77882 10.2207 2.72003 10.1774 2.67668L10.1023 3.05384ZM10.1023 3.05384C10.0601 3.0713 10.0136 3.07591 9.9687 3.06699L10.1023 3.05384ZM12.3171 3.59534L12.3173 3.60361L12.3178 3.61187C12.3534 4.24112 12.3535 4.43369 12.3535 6.09424C12.3535 6.91877 12.3444 7.38045 12.3354 7.71544C12.3334 7.79132 12.3313 7.86157 12.3293 7.92874C12.3227 8.15454 12.317 8.34557 12.317 8.59878C12.3058 9.04706 12.2217 9.49044 12.0679 9.91164C11.9405 10.249 11.7402 10.5542 11.4814 10.8055L11.4757 10.8111L11.4702 10.8168C11.2211 11.0747 10.9166 11.2725 10.5799 11.3953L10.5799 11.3952L10.5744 11.3973C10.1539 11.5563 9.70941 11.6422 9.26004 11.6515L9.25108 11.6517L9.24213 11.6522C8.61289 11.6878 8.42031 11.688 6.75977 11.688C5.09922 11.688 4.90664 11.6878 4.2774 11.6522L4.26845 11.6517L4.25949 11.6515C3.81009 11.6422 3.36561 11.5563 2.94517 11.3973L2.94149 11.3959C2.60413 11.2714 2.29886 11.0731 2.04801 10.8154L2.04268 10.81L2.03717 10.8046C1.77933 10.5555 1.58154 10.2511 1.45873 9.91435L1.45876 9.91434L1.45668 9.90885C1.29775 9.48841 1.21178 9.04387 1.20247 8.59451L1.20229 8.58555L1.20178 8.57661C1.16616 7.94736 1.16602 7.75479 1.16602 6.09424C1.16602 4.43369 1.16616 4.24112 1.20178 3.61187L1.20229 3.60292L1.20247 3.59397C1.21178 3.14458 1.29775 2.70008 1.45669 2.27962L1.45672 2.27964L1.45872 2.27414C1.58154 1.93735 1.77934 1.63291 2.03716 1.38384L2.04268 1.37851L2.04803 1.37302C2.29886 1.11537 2.60412 0.917036 2.94148 0.792531L2.94148 0.792545L2.94515 0.791158C3.36561 0.632226 3.8101 0.546252 4.25949 0.536944L4.26845 0.536758L4.2774 0.536252C4.90664 0.500634 5.09922 0.500488 6.75977 0.500488C8.42031 0.500488 8.61289 0.500634 9.24213 0.536252L9.25108 0.536758L9.26004 0.536944C9.7094 0.546252 10.1539 0.632227 10.5744 0.791157L10.5744 0.79119L10.5799 0.7932C10.9167 0.91601 11.2211 1.11381 11.4702 1.37165L11.47 1.37178L11.48 1.38153C11.7383 1.63446 11.939 1.9402 12.0683 2.27784C12.2225 2.70045 12.3065 3.14549 12.3171 3.59534ZM11.9823 9.83746L11.9826 9.83668C12.1335 9.42327 12.2137 8.98742 12.2199 8.54744C12.2506 7.93173 12.2566 7.69019 12.2566 6.09424C12.2566 4.49985 12.2507 4.25722 12.22 3.64285C12.2168 3.19403 12.1365 2.74911 11.9826 2.32748L11.9801 2.32063L11.9774 2.31385C11.8512 1.99728 11.6582 1.71173 11.4115 1.47674C11.1604 1.2075 10.85 1.00051 10.5047 0.872353L10.5022 0.871454C10.0896 0.720771 9.65465 0.640558 9.21549 0.634122C8.59977 0.597362 8.35095 0.597363 6.78169 0.597363H6.75977C5.95409 0.597363 5.49248 0.606561 5.15481 0.615833C5.07278 0.618085 4.99909 0.620304 4.93034 0.622373C4.71401 0.628886 4.54657 0.633926 4.32227 0.63391L4.31835 0.633941C3.86693 0.63748 3.41937 0.717565 2.99474 0.870798L2.97964 0.876245L2.96493 0.882649C2.65124 1.01917 2.37028 1.22077 2.14058 1.47395C1.88511 1.70439 1.6838 1.98868 1.55127 2.30645L1.54764 2.31515L1.54434 2.32399C1.38708 2.74506 1.30427 3.19023 1.29958 3.63961C1.26289 4.25453 1.26289 4.50398 1.26289 6.07231V6.09424C1.26289 6.89991 1.27209 7.36153 1.28136 7.69919C1.28361 7.78122 1.28583 7.85491 1.2879 7.92367C1.29441 8.14 1.29945 8.30744 1.29945 8.53174V8.53957L1.2997 8.54741C1.31389 9.00016 1.40733 9.44686 1.57575 9.86726C1.69524 10.1983 1.88823 10.4979 2.14024 10.7436C2.37637 10.9868 2.65966 11.1792 2.97283 11.3092L2.9885 11.3157L3.00457 11.3211C3.4332 11.4658 3.88334 11.5366 4.33575 11.5304C4.94614 11.5667 5.1992 11.5667 6.76222 11.5667H6.78414C8.38009 11.5667 8.62164 11.5607 9.23734 11.53C9.67733 11.5238 10.1132 11.4436 10.5266 11.2927L10.5266 11.2927L10.5317 11.2907C10.8614 11.1662 11.1602 10.972 11.4078 10.7212C11.6633 10.4735 11.8597 10.1715 11.9823 9.83746ZM5.3546 8.19721L5.35463 8.19723C5.77054 8.47509 6.25952 8.62346 6.75977 8.62346C7.09191 8.62346 7.42079 8.55804 7.72764 8.43095C8.03453 8.30384 8.31335 8.11751 8.54819 7.88267L8.19464 7.52911L8.54819 7.88267C8.78304 7.64782 8.96937 7.369 9.09647 7.06211C9.22356 6.75526 9.28898 6.42638 9.28898 6.09424C9.28898 5.59399 9.14062 5.10501 8.86275 4.6891L8.86274 4.68907C8.58482 4.27315 8.18981 3.94897 7.72765 3.75754C7.2655 3.56611 6.75696 3.51602 6.26634 3.61362C5.77572 3.71121 5.32506 3.95209 4.97134 4.30581C4.61762 4.65953 4.37674 5.11019 4.27915 5.60081C4.18155 6.09143 4.23164 6.59997 4.42307 7.06213C4.6145 7.52428 4.93868 7.91929 5.3546 8.19721ZM9.78704 2.88536C9.77811 2.84042 9.7827 2.79388 9.80019 2.75164L9.78704 2.88536ZM9.96867 3.06698C9.92388 3.05806 9.8827 3.03607 9.85027 3.00366L9.96867 3.06698Z" stroke="white"/>
</svg>
