<svg width="14" height="12" viewBox="0 0 14 12" fill="none" xmlns="http://www.w3.org/2000/svg">
<path d="M6.02655 7.70542L2.6497 11.4998H2.0319L5.8599 7.19732L6.13647 6.88647L5.88105 6.55802L1.68825 1.1665H4.45408L7.08943 4.59278L7.45777 5.07166L7.85933 4.62027L10.9318 1.1665H11.5484L8.01764 5.13483L7.74256 5.44401L7.99487 5.77203L12.4006 11.4998H9.72616L6.79474 7.73085L6.42592 7.25666L6.02655 7.70542ZM9.62655 11.156L9.77668 11.3491H10.0212H11.1046H12.1199L11.5009 10.5442L4.50798 1.452L4.35787 1.25683H4.11164H2.94911H1.92676L2.55444 2.06381L9.62655 11.156Z" fill="white" stroke="white"/>
</svg>
