<svg width="12" height="9" viewBox="0 0 12 9" fill="none" xmlns="http://www.w3.org/2000/svg">
<path d="M5.9987 8.94385L6.0032 8.44387L6.00311 8.44387L6.00274 8.44386L6.00119 8.44385L5.99496 8.44379L5.97035 8.44355L5.87578 8.44256C5.79379 8.44167 5.67556 8.44029 5.5308 8.43837C5.24123 8.43453 4.84587 8.42851 4.42243 8.41979C3.58062 8.40246 2.65506 8.37489 2.21443 8.33483C2.13624 8.32052 2.06101 8.31046 1.98835 8.30074C1.71539 8.26422 1.47859 8.23254 1.25636 7.99917L1.2564 7.99913L1.25074 7.99337C1.17385 7.9152 1.08897 7.73728 1.02245 7.51009C0.9926 7.40814 0.971497 7.31428 0.957931 7.24597C0.951203 7.21208 0.946467 7.18519 0.943529 7.16757L0.940512 7.14881L0.94018 7.14602L0.936837 7.11725C0.933912 7.09166 0.92967 7.05358 0.92455 7.00481C0.914303 6.90721 0.900567 6.7671 0.886816 6.59878C0.859206 6.26082 0.832031 5.81506 0.832031 5.37373V4.51175C0.832031 4.07078 0.859718 3.62531 0.887858 3.28749C0.901871 3.11926 0.915868 2.97922 0.92631 2.88168C0.931527 2.83294 0.935849 2.79489 0.938828 2.76933L0.942232 2.74059L0.942738 2.73644L0.942862 2.7356L0.945854 2.71668C0.948738 2.69912 0.953397 2.67228 0.960038 2.63847C0.973429 2.57028 0.994313 2.4766 1.02398 2.37486C1.09012 2.14806 1.17485 1.97097 1.25182 1.89322L1.25189 1.89329L1.25855 1.88629C1.51517 1.61685 1.77253 1.58978 2.00788 1.56503C2.03199 1.5625 2.05587 1.55999 2.0795 1.55724C2.85604 1.50104 3.83049 1.47254 4.6177 1.45821C5.01199 1.45103 5.3571 1.44743 5.60356 1.44564C5.72676 1.44474 5.82523 1.44429 5.8928 1.44407L5.97016 1.44388L5.99 1.44385L5.99494 1.44385L5.99614 1.44385L5.99642 1.44385H5.99648H6.00091H6.00097L6.00125 1.44385L6.00245 1.44385L6.0074 1.44385L6.02723 1.44388L6.1046 1.44407C6.17216 1.44429 6.27064 1.44474 6.39384 1.44564C6.6403 1.44743 6.98541 1.45103 7.37971 1.45821C8.16691 1.47254 9.14136 1.50104 9.91789 1.55724C9.94152 1.55999 9.96541 1.5625 9.98953 1.56504C10.2249 1.58979 10.4822 1.61685 10.7388 1.88628L10.7387 1.88634L10.7456 1.89321C10.8229 1.97137 10.9081 2.149 10.9748 2.3759C11.0048 2.47774 11.0259 2.5715 11.0395 2.63974C11.0462 2.67358 11.051 2.70044 11.0539 2.71803L11.0569 2.73671L11.057 2.73698L11.0572 2.73944L11.0606 2.76822C11.0635 2.79381 11.0677 2.83189 11.0729 2.88066C11.0831 2.97826 11.0968 3.11837 11.1106 3.28669C11.1382 3.62465 11.1654 4.07041 11.1654 4.51175V5.37373C11.1654 5.8162 11.1382 6.26196 11.1106 6.59959C11.0968 6.76775 11.0831 6.90763 11.0729 7.00504C11.0678 7.05372 11.0635 7.09171 11.0606 7.11723L11.0573 7.14593L11.057 7.1485L11.0569 7.14871L11.0539 7.16744C11.051 7.18503 11.0462 7.21189 11.0395 7.24573C11.0259 7.31397 11.0048 7.40772 10.9748 7.50956C10.9081 7.73645 10.8229 7.91407 10.7456 7.99222L10.7455 7.99216L10.7388 7.99919C10.4822 8.26862 10.2249 8.29569 9.98957 8.32045C9.96556 8.32297 9.94178 8.32547 9.91825 8.3282C9.14114 8.38334 8.16582 8.41239 7.37808 8.42755C6.98341 8.43515 6.63793 8.43922 6.39121 8.4414C6.26787 8.44249 6.16927 8.4431 6.10162 8.44344L6.02414 8.44377L6.00427 8.44383L5.99931 8.44385L5.9981 8.44385L5.99782 8.44385H5.99776L5.9987 8.94385ZM5.9987 8.94385C5.9987 8.94385 8.3805 8.93938 9.96536 8.82612L0.894271 8.34398C1.2504 8.71796 1.69845 8.77276 1.98604 8.80793C2.04702 8.81539 2.10078 8.82197 2.14492 8.83052C3.05247 8.91718 5.9987 8.94385 5.9987 8.94385ZM4.32774 6.4201V7.2439L5.05853 6.86365L8.11982 5.27076L8.96929 4.82876L8.12109 4.38433L5.05979 2.78033L4.32774 2.39676V3.22321V6.4201ZM0.9423 2.7394C0.942285 2.73951 0.942295 2.73943 0.942331 2.73918L0.9423 2.7394Z" fill="white" stroke="white"/>
</svg>
