<svg width="120" height="60" viewBox="0 0 120 60" fill="none" xmlns="http://www.w3.org/2000/svg">
<circle cx="30" cy="30" r="30" fill="black"/>
<path d="M115.525 42.88V16H120V42.88H115.525Z" fill="white"/>
<path d="M97.3821 42.88L88.9531 16H93.5575L100.613 38.512L107.76 16H112.365L103.936 42.88H97.3821Z" fill="white"/>
<path d="M67.3262 42.88V16H71.8006V28.4693L82.476 16H87.9715L76.4792 29.1787L88.7512 42.88H83.0701L71.8006 30.336V42.88H67.3262Z" fill="white"/>
<path d="M50.8193 44C48.1458 44 45.856 43.4151 43.9499 42.2453C42.0438 41.0631 40.5771 39.4204 39.5497 37.3173C38.5348 35.2142 38.0273 32.7751 38.0273 30C38.0273 27.2249 38.5348 24.7858 39.5497 22.6827C40.5771 20.5796 42.0438 18.9431 43.9499 17.7733C45.856 16.5911 48.1458 16 50.8193 16C53.4927 16 55.7825 16.5911 57.6886 17.7733C59.6071 18.9431 61.0738 20.5796 62.0888 22.6827C63.1161 24.7858 63.6297 27.2249 63.6297 30C63.6297 32.7751 63.1161 35.2142 62.0888 37.3173C61.0738 39.4204 59.6071 41.0631 57.6886 42.2453C55.7825 43.4151 53.4927 44 50.8193 44ZM50.8193 39.7627C52.614 39.7751 54.1054 39.3769 55.2936 38.568C56.4942 37.7591 57.3916 36.6204 57.9857 35.152C58.5922 33.6836 58.8954 31.9662 58.8954 30C58.8954 28.0338 58.5922 26.3289 57.9857 24.8853C57.3916 23.4293 56.4942 22.2969 55.2936 21.488C54.1054 20.6791 52.614 20.2622 50.8193 20.2373C49.0246 20.2249 47.5331 20.6231 46.3449 21.432C45.1567 22.2409 44.2593 23.3796 43.6528 24.848C43.0587 26.3164 42.7617 28.0338 42.7617 30C42.7617 31.9662 43.0587 33.6773 43.6528 35.1333C44.2469 36.5769 45.1381 37.7031 46.3263 38.512C47.5269 39.3209 49.0246 39.7378 50.8193 39.7627Z" fill="white"/>
<path d="M15 42.88V16H26.0467C26.3066 16 26.6408 16.0124 27.0493 16.0373C27.4577 16.0498 27.8352 16.0871 28.1818 16.1493C29.729 16.3858 31.0038 16.9022 32.0064 17.6987C33.0213 18.4951 33.7701 19.5031 34.2528 20.7227C34.7479 21.9298 34.9955 23.2738 34.9955 24.7547C34.9955 26.9449 34.4447 28.8302 33.3431 30.4107C32.2415 31.9787 30.552 32.9493 28.2746 33.3227L26.3623 33.4907H25.7847L23.7407 29.2907H19.4744V33.4907V42.88H15ZM30.354 42.88L22.8815 27.5252C22.8815 27.5252 25.5364 29.3475 26.2146 29.2907C26.8929 29.2338 29.6299 30.9333 29.6299 30.9333L35.4225 42.88H30.354ZM19.4744 29.2907H25.8611C26.1086 29.2907 26.3871 29.2782 26.6965 29.2533C27.006 29.2284 27.2906 29.1787 27.5506 29.104C28.2932 28.9173 28.8749 28.5876 29.2958 28.1147C29.729 27.6418 30.0322 27.1067 30.2055 26.5093C30.3911 25.912 30.484 25.3271 30.484 24.7547C30.484 24.1822 30.3911 23.5973 30.2055 23C30.0322 22.3902 29.729 21.8489 29.2958 21.376C28.8749 20.9031 28.2932 20.5733 27.5506 20.3867C27.2906 20.312 27.006 20.2684 26.6965 20.256C26.3871 20.2311 26.1086 20.2187 25.8611 20.2187H19.4744V29.2907Z" fill="white"/>
</svg>
