<svg width="105" height="28" viewBox="0 0 105 28" fill="none" xmlns="http://www.w3.org/2000/svg">
<path d="M100.525 26.88V0H105V26.88H100.525Z" fill="black"/>
<path d="M82.3821 26.88L73.9531 0H78.5575L85.6125 22.512L92.7604 0H97.3647L88.9358 26.88H82.3821Z" fill="black"/>
<path d="M52.3262 26.88V0H56.8006V12.4693L67.476 0H72.9715L61.4792 13.1787L73.7512 26.88H68.0701L56.8006 14.336V26.88H52.3262Z" fill="black"/>
<path d="M35.8193 28C33.1458 28 30.856 27.4151 28.9499 26.2453C27.0438 25.0631 25.5771 23.4204 24.5497 21.3173C23.5348 19.2142 23.0273 16.7751 23.0273 14C23.0273 11.2249 23.5348 8.78578 24.5497 6.68267C25.5771 4.57956 27.0438 2.94311 28.9499 1.77333C30.856 0.591111 33.1458 0 35.8193 0C38.4927 0 40.7825 0.591111 42.6886 1.77333C44.6071 2.94311 46.0738 4.57956 47.0888 6.68267C48.1161 8.78578 48.6297 11.2249 48.6297 14C48.6297 16.7751 48.1161 19.2142 47.0888 21.3173C46.0738 23.4204 44.6071 25.0631 42.6886 26.2453C40.7825 27.4151 38.4927 28 35.8193 28ZM35.8193 23.7627C37.614 23.7751 39.1054 23.3769 40.2936 22.568C41.4942 21.7591 42.3916 20.6204 42.9857 19.152C43.5922 17.6836 43.8954 15.9662 43.8954 14C43.8954 12.0338 43.5922 10.3289 42.9857 8.88533C42.3916 7.42933 41.4942 6.29689 40.2936 5.488C39.1054 4.67911 37.614 4.26222 35.8193 4.23733C34.0246 4.22489 32.5331 4.62311 31.3449 5.432C30.1567 6.24089 29.2593 7.37955 28.6528 8.848C28.0587 10.3164 27.7617 12.0338 27.7617 14C27.7617 15.9662 28.0587 17.6773 28.6528 19.1333C29.2469 20.5769 30.1381 21.7031 31.3263 22.512C32.5269 23.3209 34.0246 23.7378 35.8193 23.7627Z" fill="black"/>
<path d="M0 26.88V0H11.0467C11.3066 0 11.6408 0.0124438 12.0493 0.0373323C12.4577 0.0497774 12.8352 0.0871107 13.1818 0.149333C14.729 0.385776 16.0038 0.902222 17.0064 1.69867C18.0213 2.49511 18.7701 3.50311 19.2528 4.72267C19.7479 5.92978 19.9955 7.27378 19.9955 8.75467C19.9955 10.9449 19.4447 12.8302 18.3431 14.4107C17.2415 15.9787 15.552 16.9493 13.2746 17.3227L11.3623 17.4907H10.7847L8.74072 13.2907H4.47438V17.4907V26.88H0ZM15.354 26.88L7.88153 11.5252C7.88153 11.5252 10.5364 13.3475 11.2146 13.2907C11.8929 13.2338 14.6299 14.9333 14.6299 14.9333L20.4225 26.88H15.354ZM4.47438 13.2907H10.8611C11.1086 13.2907 11.3871 13.2782 11.6965 13.2533C12.006 13.2284 12.2906 13.1787 12.5506 13.104C13.2932 12.9173 13.8749 12.5876 14.2958 12.1147C14.729 11.6418 15.0322 11.1067 15.2055 10.5093C15.3911 9.912 15.484 9.32711 15.484 8.75467C15.484 8.18222 15.3911 7.59733 15.2055 7C15.0322 6.39022 14.729 5.84889 14.2958 5.376C13.8749 4.90311 13.2932 4.57333 12.5506 4.38667C12.2906 4.312 12.006 4.26844 11.6965 4.256C11.3871 4.23111 11.1086 4.21867 10.8611 4.21867H4.47438V13.2907Z" fill="black"/>
</svg>
