<svg width="133" height="66" viewBox="0 0 133 66" fill="none" xmlns="http://www.w3.org/2000/svg">
<mask id="path-1-outside-1_3957_29" maskUnits="userSpaceOnUse" x="0" y="9" width="130" height="48" fill="black">
<rect fill="white" y="9" width="130" height="48"/>
<path d="M11.7 54V16.38L12.48 12H19.56V54H11.7ZM2.82 25.26V17.82C3.82 17.9 4.9 17.66 6.06 17.1C7.22 16.5 8.36 15.74 9.48 14.82C10.64 13.86 11.64 12.9 12.48 11.94L17.7 17.04C16.26 18.64 14.74 20.1 13.14 21.42C11.54 22.7 9.88 23.7 8.16 24.42C6.48 25.14 4.7 25.42 2.82 25.26ZM28.3725 54V47.94C28.3725 46.78 28.7325 45.5 29.4525 44.1C30.1725 42.7 31.1725 41.3 32.4525 39.9C33.7325 38.5 35.2325 37.2 36.9525 36L43.3125 31.44C44.1925 30.84 45.0125 30.16 45.7725 29.4C46.5725 28.64 47.2125 27.82 47.6925 26.94C48.2125 26.02 48.4725 25.14 48.4725 24.3C48.4725 23.26 48.2125 22.32 47.6925 21.48C47.2125 20.64 46.4925 19.98 45.5325 19.5C44.5725 19.02 43.3925 18.78 41.9925 18.78C40.7925 18.78 39.7125 19.02 38.7525 19.5C37.8325 19.98 37.0725 20.62 36.4725 21.42C35.8725 22.22 35.4525 23.08 35.2125 24L26.7525 22.56C27.1525 20.56 28.0125 18.7 29.3325 16.98C30.6525 15.26 32.3725 13.88 34.4925 12.84C36.6525 11.76 39.0925 11.22 41.8125 11.22C44.9325 11.22 47.6125 11.78 49.8525 12.9C52.0925 14.02 53.8125 15.56 55.0125 17.52C56.2525 19.44 56.8725 21.68 56.8725 24.24C56.8725 26.84 56.1525 29.16 54.7125 31.2C53.3125 33.2 51.3725 35.08 48.8925 36.84L43.1925 40.98C42.0325 41.78 41.0325 42.66 40.1925 43.62C39.3525 44.58 38.7125 45.64 38.2725 46.8H57.4125V54H28.3725ZM77.6386 54.72C75.7186 54.72 73.7386 54.4 71.6986 53.76C69.6986 53.12 67.8786 52.16 66.2386 50.88C64.6386 49.6 63.4586 48.02 62.6986 46.14L70.1986 43.92C71.0786 45.2 72.1186 46.14 73.3186 46.74C74.5586 47.34 75.8386 47.64 77.1586 47.64C79.2386 47.64 80.9186 47.02 82.1986 45.78C83.5186 44.5 84.1786 42.8 84.1786 40.68C84.1786 38.72 83.5386 37.08 82.2586 35.76C81.0186 34.44 79.3586 33.78 77.2786 33.78C76.0386 33.78 74.8986 34.06 73.8586 34.62C72.8186 35.18 72.0186 35.84 71.4586 36.6L64.0786 34.98L66.5986 12H90.3586V19.44H73.6186L72.4186 29.52C73.4986 28.92 74.6986 28.44 76.0186 28.08C77.3386 27.68 78.7586 27.5 80.2786 27.54C82.5586 27.54 84.6386 28.1 86.5186 29.22C88.3986 30.3 89.8786 31.8 90.9586 33.72C92.0786 35.6 92.6386 37.8 92.6386 40.32C92.6386 43.16 91.9986 45.66 90.7186 47.82C89.4386 49.98 87.6786 51.68 85.4386 52.92C83.1986 54.12 80.5986 54.72 77.6386 54.72ZM110.702 49.98V22.26H117.122V49.98H110.702ZM100.022 39.36V32.94H127.742V39.36H100.022Z"/>
</mask>
<path d="M11.7 54H9.7V56H11.7V54ZM11.7 16.38L9.73098 16.0294L9.7 16.2033V16.38H11.7ZM12.48 12V10H10.8047L10.511 11.6493L12.48 12ZM19.56 12H21.56V10H19.56V12ZM19.56 54V56H21.56V54H19.56ZM2.82 25.26H0.82V27.097L2.6504 27.2528L2.82 25.26ZM2.82 17.82L2.97949 15.8264L0.82 15.6536V17.82H2.82ZM6.06 17.1L6.9295 18.9011L6.95434 18.8891L6.97885 18.8764L6.06 17.1ZM9.48 14.82L10.7495 16.3655L10.7551 16.3608L9.48 14.82ZM12.48 11.94L13.8777 10.5094L12.3663 9.03278L10.9748 10.623L12.48 11.94ZM17.7 17.04L19.1866 18.3779L20.4708 16.951L19.0977 15.6094L17.7 17.04ZM13.14 21.42L14.3894 22.9817L14.4012 22.9723L14.4128 22.9627L13.14 21.42ZM8.16 24.42L7.38772 22.5751L7.37993 22.5784L7.37216 22.5817L8.16 24.42ZM13.7 54V16.38H9.7V54H13.7ZM13.669 16.7306L14.449 12.3506L10.511 11.6493L9.73098 16.0294L13.669 16.7306ZM12.48 14H19.56V10H12.48V14ZM17.56 12V54H21.56V12H17.56ZM19.56 52H11.7V56H19.56V52ZM4.82 25.26V17.82H0.82V25.26H4.82ZM2.66051 19.8136C4.10156 19.9289 5.53874 19.5725 6.9295 18.9011L5.1905 15.2989C4.26126 15.7475 3.53845 15.8711 2.97949 15.8264L2.66051 19.8136ZM6.97885 18.8764C8.27625 18.2054 9.53271 17.3649 10.7495 16.3654L8.21052 13.2745C7.18729 14.1151 6.16375 14.7946 5.14115 15.3236L6.97885 18.8764ZM10.7551 16.3608C11.9834 15.3443 13.0634 14.3105 13.9852 13.257L10.9748 10.623C10.2166 11.4895 9.29661 12.3757 8.20487 13.2792L10.7551 16.3608ZM11.0823 13.3706L16.3023 18.4706L19.0977 15.6094L13.8777 10.5094L11.0823 13.3706ZM16.2134 15.7021C14.837 17.2314 13.3882 18.6225 11.8672 19.8773L14.4128 22.9627C16.0918 21.5775 17.683 20.0486 19.1866 18.3779L16.2134 15.7021ZM11.8906 19.8583C10.4215 21.0335 8.9203 21.9336 7.38772 22.5751L8.93228 26.2649C10.8397 25.4664 12.6585 24.3665 14.3894 22.9817L11.8906 19.8583ZM7.37216 22.5817C6.00375 23.1682 4.55357 23.4003 2.9896 23.2672L2.6504 27.2528C4.84643 27.4397 6.95625 27.1118 8.94784 26.2583L7.37216 22.5817ZM28.3725 54H26.3725V56H28.3725V54ZM29.4525 44.1L31.2311 45.0147L31.2311 45.0147L29.4525 44.1ZM32.4525 39.9L30.9764 38.5505L30.9764 38.5505L32.4525 39.9ZM36.9525 36L38.0969 37.6403L38.1074 37.6329L38.1179 37.6254L36.9525 36ZM43.3125 31.44L42.1858 29.7875L42.1663 29.8008L42.1471 29.8146L43.3125 31.44ZM45.7725 29.4L44.395 27.95L44.3764 27.9677L44.3583 27.9858L45.7725 29.4ZM47.6925 26.94L45.9514 25.9559L45.9439 25.969L45.9367 25.9823L47.6925 26.94ZM47.6925 21.48L45.956 22.4723L45.9735 22.5028L45.992 22.5327L47.6925 21.48ZM45.5325 19.5L46.4269 17.7111L46.4269 17.7111L45.5325 19.5ZM38.7525 19.5L37.8581 17.7111L37.8427 17.7189L37.8274 17.7268L38.7525 19.5ZM36.4725 21.42L34.8725 20.22L34.8725 20.22L36.4725 21.42ZM35.2125 24L34.8769 25.9716L36.6848 26.2794L37.1477 24.5048L35.2125 24ZM26.7525 22.56L24.7913 22.1678L24.3876 24.1862L26.4169 24.5316L26.7525 22.56ZM29.3325 16.98L27.7459 15.7624L27.7459 15.7624L29.3325 16.98ZM34.4925 12.84L35.3734 14.6356L35.3802 14.6322L35.3869 14.6289L34.4925 12.84ZM49.8525 12.9L50.7469 11.1111L50.7469 11.1111L49.8525 12.9ZM55.0125 17.52L53.3068 18.5643L53.3194 18.5848L53.3324 18.605L55.0125 17.52ZM54.7125 31.2L53.0786 30.0466L53.074 30.0531L54.7125 31.2ZM48.8925 36.84L47.735 35.209L47.7261 35.2153L47.7172 35.2218L48.8925 36.84ZM43.1925 40.98L44.328 42.6264L44.3481 42.6126L44.3678 42.5982L43.1925 40.98ZM40.1925 43.62L38.6873 42.303L38.6873 42.303L40.1925 43.62ZM38.2725 46.8L36.4025 46.0907L35.3748 48.8H38.2725V46.8ZM57.4125 46.8H59.4125V44.8H57.4125V46.8ZM57.4125 54V56H59.4125V54H57.4125ZM30.3725 54V47.94H26.3725V54H30.3725ZM30.3725 47.94C30.3725 47.1911 30.6071 46.228 31.2311 45.0147L27.6739 43.1853C26.8579 44.772 26.3725 46.3689 26.3725 47.94H30.3725ZM31.2311 45.0147C31.8554 43.8007 32.7446 42.5444 33.9286 41.2495L30.9764 38.5505C29.6004 40.0556 28.4896 41.5993 27.6739 43.1853L31.2311 45.0147ZM33.9286 41.2495C35.0992 39.9691 36.4853 38.7646 38.0969 37.6403L35.8081 34.3597C33.9797 35.6354 32.3658 37.0309 30.9764 38.5505L33.9286 41.2495ZM38.1179 37.6254L44.4779 33.0654L42.1471 29.8146L35.7871 34.3746L38.1179 37.6254ZM44.4392 33.0925C45.4232 32.4215 46.3393 31.6616 47.1867 30.8142L44.3583 27.9858C43.6857 28.6584 42.9618 29.2585 42.1858 29.7875L44.4392 33.0925ZM47.15 30.85C48.0858 29.9609 48.8591 28.9779 49.4483 27.8977L45.9367 25.9823C45.5659 26.6621 45.0592 27.3191 44.395 27.95L47.15 30.85ZM49.4336 27.9241C50.0802 26.7801 50.4725 25.563 50.4725 24.3H46.4725C46.4725 24.717 46.3448 25.2599 45.9514 25.9559L49.4336 27.9241ZM50.4725 24.3C50.4725 22.9086 50.1193 21.6005 49.393 20.4273L45.992 22.5327C46.3057 23.0395 46.4725 23.6114 46.4725 24.3H50.4725ZM49.429 20.4877C48.7319 19.2679 47.7 18.3477 46.4269 17.7111L44.6381 21.2889C45.2851 21.6123 45.6931 22.0121 45.956 22.4723L49.429 20.4877ZM46.4269 17.7111C45.1179 17.0566 43.612 16.78 41.9925 16.78V20.78C43.173 20.78 44.0271 20.9834 44.6381 21.2889L46.4269 17.7111ZM41.9925 16.78C40.5191 16.78 39.1271 17.0766 37.8581 17.7111L39.6469 21.2889C40.2979 20.9634 41.0659 20.78 41.9925 20.78V16.78ZM37.8274 17.7268C36.6527 18.3397 35.6586 19.1718 34.8725 20.22L38.0725 22.62C38.4864 22.0682 39.0123 21.6203 39.6776 21.2732L37.8274 17.7268ZM34.8725 20.22C34.1249 21.2168 33.5862 22.311 33.2773 23.4952L37.1477 24.5048C37.3188 23.849 37.6201 23.2232 38.0725 22.62L34.8725 20.22ZM35.5481 22.0284L27.0881 20.5884L26.4169 24.5316L34.8769 25.9716L35.5481 22.0284ZM28.7137 22.9522C29.0499 21.2712 29.7735 19.6905 30.9191 18.1976L27.7459 15.7624C26.2515 17.7095 25.2551 19.8488 24.7913 22.1678L28.7137 22.9522ZM30.9191 18.1976C32.0352 16.7433 33.5049 15.5522 35.3734 14.6356L33.6117 11.0444C31.2401 12.2078 29.2698 13.7767 27.7459 15.7624L30.9191 18.1976ZM35.3869 14.6289C37.2359 13.7044 39.3634 13.22 41.8125 13.22V9.22C38.8216 9.22 36.0691 9.81561 33.5981 11.0511L35.3869 14.6289ZM41.8125 13.22C44.6967 13.22 47.0556 13.7376 48.9581 14.6889L50.7469 11.1111C48.1694 9.82237 45.1683 9.22 41.8125 9.22V13.22ZM48.9581 14.6889C50.8945 15.657 52.3197 16.952 53.3068 18.5643L56.7182 16.4757C55.3053 14.168 53.2905 12.3829 50.7469 11.1111L48.9581 14.6889ZM53.3324 18.605C54.3391 20.1638 54.8725 22.0172 54.8725 24.24H58.8725C58.8725 21.3428 58.1659 18.7162 56.6926 16.4349L53.3324 18.605ZM54.8725 24.24C54.8725 26.4451 54.2701 28.3586 53.0786 30.0466L56.3464 32.3534C58.0349 29.9614 58.8725 27.2349 58.8725 24.24H54.8725ZM53.074 30.0531C51.8332 31.8257 50.0722 33.5503 47.735 35.209L50.05 38.471C52.6728 36.6097 54.7918 34.5743 56.351 32.3469L53.074 30.0531ZM47.7172 35.2218L42.0172 39.3618L44.3678 42.5982L50.0678 38.4582L47.7172 35.2218ZM42.057 39.3336C40.7747 40.2179 39.6472 41.2061 38.6873 42.303L41.6977 44.937C42.4178 44.1139 43.2903 43.3421 44.328 42.6264L42.057 39.3336ZM38.6873 42.303C37.695 43.4371 36.9294 44.7017 36.4025 46.0907L40.1425 47.5093C40.4956 46.5783 41.01 45.7229 41.6977 44.937L38.6873 42.303ZM38.2725 48.8H57.4125V44.8H38.2725V48.8ZM55.4125 46.8V54H59.4125V46.8H55.4125ZM57.4125 52H28.3725V56H57.4125V52ZM71.6986 53.76L71.089 55.6649L71.0999 55.6683L71.6986 53.76ZM66.2386 50.88L64.9892 52.4417L64.9986 52.4492L65.0081 52.4566L66.2386 50.88ZM62.6986 46.14L62.1309 44.2222L60.0188 44.8474L60.8444 46.8896L62.6986 46.14ZM70.1986 43.92L71.8467 42.7869L71.0238 41.59L69.6309 42.0022L70.1986 43.92ZM73.3186 46.74L72.4242 48.5289L72.4358 48.5347L72.4475 48.5403L73.3186 46.74ZM82.1986 45.78L83.5902 47.2165L83.5909 47.2158L82.1986 45.78ZM82.2586 35.76L80.8009 37.1293L80.8118 37.1409L80.8228 37.1523L82.2586 35.76ZM73.8586 34.62L72.9104 32.8591L72.9104 32.8591L73.8586 34.62ZM71.4586 36.6L71.0298 38.5535L72.2983 38.8319L73.0687 37.7864L71.4586 36.6ZM64.0786 34.98L62.0905 34.762L61.8946 36.5482L63.6498 36.9335L64.0786 34.98ZM66.5986 12V10H64.8059L64.6105 11.782L66.5986 12ZM90.3586 12H92.3586V10H90.3586V12ZM90.3586 19.44V21.44H92.3586V19.44H90.3586ZM73.6186 19.44V17.44H71.8426L71.6326 19.2036L73.6186 19.44ZM72.4186 29.52L70.4326 29.2836L69.9702 33.1682L73.3899 31.2683L72.4186 29.52ZM76.0186 28.08L76.5448 30.0095L76.5718 30.0022L76.5986 29.994L76.0186 28.08ZM80.2786 27.54L80.226 29.5393L80.2523 29.54H80.2786V27.54ZM86.5186 29.22L85.495 30.9382L85.5086 30.9463L85.5223 30.9542L86.5186 29.22ZM90.9586 33.72L89.2154 34.7005L89.2277 34.7222L89.2404 34.7436L90.9586 33.72ZM90.7186 47.82L88.998 46.8004L88.998 46.8004L90.7186 47.82ZM85.4386 52.92L86.383 54.683L86.3952 54.6765L86.4072 54.6698L85.4386 52.92ZM77.6386 52.72C75.9433 52.72 74.1653 52.4377 72.2973 51.8517L71.0999 55.6683C73.3119 56.3623 75.4939 56.72 77.6386 56.72V52.72ZM72.3081 51.8552C70.5307 51.2864 68.9213 50.4368 67.4691 49.3034L65.0081 52.4566C66.8358 53.8832 68.8665 54.9536 71.089 55.6648L72.3081 51.8552ZM67.488 49.3183C66.153 48.2503 65.1828 46.9488 64.5528 45.3904L60.8444 46.8896C61.7344 49.0912 63.1242 50.9497 64.9892 52.4417L67.488 49.3183ZM63.2662 48.0578L70.7662 45.8378L69.6309 42.0022L62.1309 44.2222L63.2662 48.0578ZM68.5505 45.0531C69.5917 46.5675 70.8768 47.7552 72.4242 48.5289L74.213 44.9511C73.3604 44.5248 72.5655 43.8325 71.8467 42.7869L68.5505 45.0531ZM72.4475 48.5403C73.9469 49.2658 75.5236 49.64 77.1586 49.64V45.64C76.1535 45.64 75.1703 45.4142 74.1897 44.9397L72.4475 48.5403ZM77.1586 49.64C79.6648 49.64 81.8751 48.878 83.5902 47.2165L80.807 44.3435C79.9621 45.162 78.8124 45.64 77.1586 45.64V49.64ZM83.5909 47.2158C85.3596 45.5007 86.1786 43.251 86.1786 40.68H82.1786C82.1786 42.349 81.6776 43.4993 80.8063 44.3442L83.5909 47.2158ZM86.1786 40.68C86.1786 38.238 85.3617 36.0872 83.6944 34.3677L80.8228 37.1523C81.7154 38.0728 82.1786 39.202 82.1786 40.68H86.1786ZM83.7163 34.3906C82.0409 32.6071 79.8209 31.78 77.2786 31.78V35.78C78.8963 35.78 79.9963 36.2729 80.8009 37.1293L83.7163 34.3906ZM77.2786 31.78C75.7247 31.78 74.2565 32.1343 72.9104 32.8591L74.8068 36.3809C75.5407 35.9857 76.3525 35.78 77.2786 35.78V31.78ZM72.9104 32.8591C71.6736 33.525 70.6223 34.3635 69.8485 35.4136L73.0687 37.7864C73.4149 37.3165 73.9635 36.835 74.8068 36.3809L72.9104 32.8591ZM71.8874 34.6465L64.5074 33.0265L63.6498 36.9335L71.0298 38.5535L71.8874 34.6465ZM66.0667 35.198L68.5867 12.218L64.6105 11.782L62.0905 34.762L66.0667 35.198ZM66.5986 14H90.3586V10H66.5986V14ZM88.3586 12V19.44H92.3586V12H88.3586ZM90.3586 17.44H73.6186V21.44H90.3586V17.44ZM71.6326 19.2036L70.4326 29.2836L74.4046 29.7564L75.6046 19.6764L71.6326 19.2036ZM73.3899 31.2683C74.3152 30.7542 75.3635 30.3317 76.5448 30.0095L75.4924 26.1505C74.0337 26.5483 72.682 27.0858 71.4473 27.7717L73.3899 31.2683ZM76.5986 29.994C77.6938 29.6622 78.8983 29.5044 80.226 29.5393L80.3312 25.5407C78.6189 25.4956 76.9834 25.6978 75.4386 26.166L76.5986 29.994ZM80.2786 29.54C82.214 29.54 83.9379 30.0105 85.495 30.9382L87.5422 27.5018C85.3393 26.1894 82.9032 25.54 80.2786 25.54V29.54ZM85.5223 30.9542C87.0848 31.8518 88.309 33.0891 89.2154 34.7005L92.7017 32.7395C91.4482 30.5109 89.7124 28.7482 87.5148 27.4858L85.5223 30.9542ZM89.2404 34.7436C90.1495 36.2696 90.6386 38.1048 90.6386 40.32H94.6386C94.6386 37.4952 94.0077 34.9304 92.6768 32.6964L89.2404 34.7436ZM90.6386 40.32C90.6386 42.8493 90.0721 44.9879 88.998 46.8004L92.4392 48.8396C93.9251 46.3321 94.6386 43.4707 94.6386 40.32H90.6386ZM88.998 46.8004C87.903 48.6482 86.4053 50.0989 84.47 51.1702L86.4072 54.6698C88.9519 53.2611 90.9742 51.3118 92.4392 48.8396L88.998 46.8004ZM84.4942 51.157C82.5892 52.1776 80.3236 52.72 77.6386 52.72V56.72C80.8736 56.72 83.808 56.0624 86.383 54.683L84.4942 51.157ZM110.702 49.98H108.702V51.98H110.702V49.98ZM110.702 22.26V20.26H108.702V22.26H110.702ZM117.122 22.26H119.122V20.26H117.122V22.26ZM117.122 49.98V51.98H119.122V49.98H117.122ZM100.022 39.36H98.0219V41.36H100.022V39.36ZM100.022 32.94V30.94H98.0219V32.94H100.022ZM127.742 32.94H129.742V30.94H127.742V32.94ZM127.742 39.36V41.36H129.742V39.36H127.742ZM112.702 49.98V22.26H108.702V49.98H112.702ZM110.702 24.26H117.122V20.26H110.702V24.26ZM115.122 22.26V49.98H119.122V22.26H115.122ZM117.122 47.98H110.702V51.98H117.122V47.98ZM102.022 39.36V32.94H98.0219V39.36H102.022ZM100.022 34.94H127.742V30.94H100.022V34.94ZM125.742 32.94V39.36H129.742V32.94H125.742ZM127.742 37.36H100.022V41.36H127.742V37.36Z" fill="black" mask="url(#path-1-outside-1_3957_29)"/>
</svg>
