<svg width="141" height="40" viewBox="0 0 141 40" fill="none" xmlns="http://www.w3.org/2000/svg">
<g style="mix-blend-mode:luminosity" opacity="0.5">
<path d="M23.4761 26.6786C29.6302 26.6786 34.619 21.6951 34.619 15.5476C34.619 14.8509 34.5549 14.1691 34.4323 13.5079C33.7704 13.3854 33.0879 13.3214 32.3904 13.3214C26.2364 13.3214 21.2476 18.3049 21.2476 24.4524C21.2476 25.1491 21.3116 25.8308 21.4342 26.4921C22.0962 26.6145 22.7787 26.6786 23.4761 26.6786Z" fill="#175CD3"/>
<path fill-rule="evenodd" clip-rule="evenodd" d="M21.4343 26.4921C16.2554 25.534 12.3333 20.9984 12.3333 15.5476C12.3333 9.40018 17.3221 4.41669 23.4762 4.41669C28.9327 4.41669 33.4733 8.3346 34.4323 13.5079C33.7704 13.3855 33.0879 13.3214 32.3904 13.3214C26.2364 13.3214 21.2476 18.3049 21.2476 24.4524C21.2476 25.1491 21.3117 25.8309 21.4343 26.4921Z" fill="#1570EF"/>
<path fill-rule="evenodd" clip-rule="evenodd" d="M23.4762 26.6785C29.6302 26.6785 34.619 21.695 34.619 15.5476C34.619 14.8509 34.5549 14.1691 34.4323 13.5079C39.6112 14.4659 43.5333 19.0016 43.5333 24.4524C43.5333 30.5998 38.5445 35.5833 32.3904 35.5833C26.9339 35.5833 22.3933 31.6654 21.4343 26.4921C22.0962 26.6145 22.7787 26.6785 23.4762 26.6785Z" fill="#2E90FA"/>
<path d="M60.2323 27.2534C64.0401 27.2534 66.7843 25.1071 67.0608 21.9196H63.8699C63.6147 23.4496 62.1468 24.4909 60.2323 24.4909C57.8285 24.4909 55.9778 22.8334 55.9778 19.6459C55.9778 16.4584 57.8285 14.7796 60.2323 14.7796C62.1043 14.7796 63.5721 15.8209 63.7848 17.3721H67.1247C66.7205 14.1634 63.9763 12.0384 60.2323 12.0384C56.2543 12.0384 52.7656 14.6309 52.7656 19.6459C52.7656 24.6609 56.1905 27.2534 60.2323 27.2534Z" fill="black"/>
<path d="M72.9827 16.2034C70.0471 16.2034 68.3026 17.9246 68.175 20.0709H70.8129C70.8555 19.1784 71.5149 18.3709 72.8126 18.3709C74.0251 18.3709 74.7271 18.9871 74.7271 19.8796C74.7271 20.3259 74.4506 20.6659 73.9187 20.6659H72.1105C69.7706 20.6659 68.1964 21.9409 68.1964 24.0446C68.1964 25.8721 69.6217 27.2534 71.7064 27.2534C73.1742 27.2534 74.3655 26.5946 74.7271 25.5959V27.0834H77.6627V20.1984C77.6627 17.7759 75.6844 16.2034 72.9827 16.2034ZM72.4509 25.1071C71.6213 25.1071 71.0257 24.6184 71.0257 23.9171C71.0257 23.0884 71.6638 22.5359 72.5573 22.5359H74.7271V22.6846C74.7271 24.0446 73.8975 25.1071 72.4509 25.1071Z" fill="black"/>
<path d="M79.6499 31.4184H82.6068V26.1271C83.1812 26.8496 84.2235 27.2534 85.4361 27.2534C88.5206 27.2534 90.6054 25.0646 90.6054 21.7284C90.6054 18.3921 88.6908 16.2034 85.6914 16.2034C84.3086 16.2034 83.245 16.7134 82.6068 17.5421V16.3734H79.6499V31.4184ZM85.0745 24.7034C83.479 24.7034 82.4366 23.5134 82.4366 21.7284C82.4366 19.9221 83.479 18.7321 85.0745 18.7321C86.6274 18.7321 87.691 19.9221 87.691 21.7284C87.691 23.5134 86.6274 24.7034 85.0745 24.7034Z" fill="black"/>
<path d="M95.8119 27.2534C98.322 27.2534 99.9813 25.9146 99.9813 23.8746C99.9813 19.0296 94.11 21.5159 94.11 19.3271C94.11 18.6471 94.6844 18.2859 95.514 18.2859C96.3224 18.2859 97.152 18.7746 97.2797 19.6884H99.8537C99.7473 17.5846 98.003 16.2034 95.429 16.2034C93.2379 16.2034 91.5999 17.5421 91.5999 19.4334C91.5999 23.9384 97.3648 21.7921 97.3648 23.9809C97.3648 24.5759 96.7266 25.0221 95.8119 25.0221C94.7057 25.0221 93.9611 24.4271 93.8548 23.4709H91.302C91.4084 25.7871 93.1953 27.2534 95.8119 27.2534Z" fill="black"/>
<path d="M111.66 16.3734H108.682V22.2384C108.682 23.5984 107.767 24.6184 106.469 24.6184C105.257 24.6184 104.406 23.6834 104.406 22.3871V16.3734H101.449V23.0459C101.449 25.4896 103.023 27.2534 105.427 27.2534C106.895 27.2534 108.086 26.6159 108.682 25.5959V27.0834H111.66V16.3734Z" fill="black"/>
<path d="M113.787 27.0834H116.744V11.7196H113.787V27.0834Z" fill="black"/>
<path d="M126.037 23.4496C125.803 24.3634 125.016 24.8309 123.825 24.8309C122.335 24.8309 121.378 23.8959 121.165 22.3871H128.866C128.887 22.1534 128.909 21.8346 128.909 21.4309C128.909 18.9871 127.398 16.2034 123.612 16.2034C119.974 16.2034 118.315 18.9871 118.315 21.7071C118.315 24.4059 120.187 27.2534 123.825 27.2534C126.462 27.2534 128.505 25.7659 128.93 23.4496H126.037ZM123.612 18.3709C125.037 18.3709 125.867 19.3271 125.952 20.5171H121.208C121.463 19.0296 122.272 18.3709 123.612 18.3709Z" fill="black"/>
</g>
</svg>
