<svg width="141" height="40" viewBox="0 0 141 40" fill="none" xmlns="http://www.w3.org/2000/svg">
<g style="mix-blend-mode:luminosity" opacity="0.5">
<path d="M14.4518 24.5833C19.6269 24.5833 23.8222 20.4793 23.8222 15.4167C23.8222 10.3541 19.6269 6.25 14.4518 6.25H1.33325V24.5833H14.4518Z" fill="#F38744"/>
<path d="M1.33325 6.25L23.8222 33.75H8.82955L1.33325 24.5833V6.25Z" fill="#2E90FA"/>
<path d="M16.1962 24.4248C15.631 24.5289 15.0479 24.5833 14.4518 24.5833H1.33325V6.25L16.1962 24.4248Z" fill="#53B1FD"/>
<path d="M39.2448 26.425C37.933 26.425 36.806 26.1683 35.8638 25.655C34.9336 25.13 34.2181 24.395 33.7172 23.45C33.2163 22.4933 32.9658 21.3675 32.9658 20.0725C32.9658 18.7775 33.2163 17.6575 33.7172 16.7125C34.2181 15.7675 34.9336 15.0383 35.8638 14.525C36.806 14 37.933 13.7375 39.2448 13.7375C40.0916 13.7375 40.8906 13.8658 41.6419 14.1225C42.4052 14.3792 43.0313 14.7467 43.5203 15.225L42.7689 17.01C42.2323 16.5667 41.6837 16.2458 41.1232 16.0475C40.5626 15.8375 39.9604 15.7325 39.3164 15.7325C38.0403 15.7325 37.0683 16.1117 36.4005 16.87C35.7326 17.6167 35.3987 18.6842 35.3987 20.0725C35.3987 21.4608 35.7326 22.5342 36.4005 23.2925C37.0683 24.0508 38.0403 24.43 39.3164 24.43C39.9604 24.43 40.5626 24.3308 41.1232 24.1325C41.6837 23.9225 42.2323 23.5958 42.7689 23.1525L43.5203 24.9375C43.0313 25.4042 42.4052 25.7717 41.6419 26.04C40.8906 26.2967 40.0916 26.425 39.2448 26.425Z" fill="black"/>
<path d="M48.6643 26.425C47.7579 26.425 46.9708 26.2442 46.303 25.8825C45.6351 25.5208 45.1163 25.0075 44.7466 24.3425C44.3769 23.6658 44.1921 22.8725 44.1921 21.9625C44.1921 21.0525 44.3769 20.265 44.7466 19.6C45.1163 18.935 45.6351 18.4217 46.303 18.06C46.9708 17.6983 47.7579 17.5175 48.6643 17.5175C49.5707 17.5175 50.3578 17.6983 51.0256 18.06C51.6935 18.4217 52.2123 18.935 52.582 19.6C52.9517 20.265 53.1365 21.0525 53.1365 21.9625C53.1365 22.8725 52.9517 23.6658 52.582 24.3425C52.2123 25.0075 51.6935 25.5208 51.0256 25.8825C50.3578 26.2442 49.5707 26.425 48.6643 26.425ZM48.6643 24.7625C49.3322 24.7625 49.8688 24.5292 50.2743 24.0625C50.6798 23.5842 50.8825 22.8842 50.8825 21.9625C50.8825 21.0292 50.6798 20.335 50.2743 19.88C49.8688 19.4133 49.3322 19.18 48.6643 19.18C47.9965 19.18 47.4598 19.4133 47.0543 19.88C46.6488 20.335 46.4461 21.0292 46.4461 21.9625C46.4461 22.8842 46.6488 23.5842 47.0543 24.0625C47.4598 24.5292 47.9965 24.7625 48.6643 24.7625Z" fill="black"/>
<path d="M55.0181 26.25V17.6925H57.2006V19.005C57.4629 18.5383 57.8267 18.1767 58.2918 17.92C58.7569 17.6517 59.2936 17.5175 59.9018 17.5175C61.2137 17.5175 62.0723 18.0775 62.4778 19.1975C62.7521 18.6725 63.1457 18.2642 63.6585 17.9725C64.1713 17.6692 64.7557 17.5175 65.4116 17.5175C67.3794 17.5175 68.3632 18.69 68.3632 21.035V26.25H66.1271V21.1225C66.1271 20.4692 66.0138 19.9908 65.7872 19.6875C65.5726 19.3842 65.2029 19.2325 64.6781 19.2325C64.0938 19.2325 63.6346 19.4367 63.3007 19.845C62.9668 20.2417 62.7998 20.7958 62.7998 21.5075V26.25H60.5637V21.1225C60.5637 20.4692 60.4504 19.9908 60.2238 19.6875C60.0091 19.3842 59.6454 19.2325 59.1326 19.2325C58.5482 19.2325 58.0891 19.4367 57.7551 19.845C57.4212 20.2417 57.2542 20.7958 57.2542 21.5075V26.25H55.0181Z" fill="black"/>
<path d="M70.7058 26.25V17.6925H72.8882V19.005C73.1506 18.5383 73.5143 18.1767 73.9794 17.92C74.4445 17.6517 74.9812 17.5175 75.5894 17.5175C76.9013 17.5175 77.7599 18.0775 78.1654 19.1975C78.4397 18.6725 78.8333 18.2642 79.3461 17.9725C79.8589 17.6692 80.4433 17.5175 81.0992 17.5175C83.067 17.5175 84.0509 18.69 84.0509 21.035V26.25H81.8148V21.1225C81.8148 20.4692 81.7015 19.9908 81.4749 19.6875C81.2602 19.3842 80.8905 19.2325 80.3658 19.2325C79.7814 19.2325 79.3222 19.4367 78.9883 19.845C78.6544 20.2417 78.4874 20.7958 78.4874 21.5075V26.25H76.2513V21.1225C76.2513 20.4692 76.138 19.9908 75.9114 19.6875C75.6968 19.3842 75.333 19.2325 74.8202 19.2325C74.2358 19.2325 73.7767 19.4367 73.4428 19.845C73.1088 20.2417 72.9419 20.7958 72.9419 21.5075V26.25H70.7058Z" fill="black"/>
<path d="M89.2378 26.425C88.6057 26.425 88.0392 26.3083 87.5384 26.075C87.0494 25.83 86.6618 25.5033 86.3756 25.095C86.1013 24.6867 85.9641 24.2258 85.9641 23.7125C85.9641 23.0825 86.1311 22.5867 86.465 22.225C86.7989 21.8517 87.3416 21.5833 88.0929 21.42C88.8442 21.2567 89.852 21.175 91.1161 21.175H91.7422V20.8075C91.7422 20.2242 91.6111 19.8042 91.3487 19.5475C91.0863 19.2908 90.6451 19.1625 90.0249 19.1625C89.5359 19.1625 89.0351 19.2383 88.5222 19.39C88.0094 19.53 87.4907 19.7517 86.9659 20.055L86.3219 18.5675C86.632 18.3575 86.9957 18.1767 87.4131 18.025C87.8425 17.8617 88.2897 17.7392 88.7548 17.6575C89.2318 17.5642 89.6791 17.5175 90.0965 17.5175C91.3725 17.5175 92.3207 17.8092 92.9408 18.3925C93.5609 18.9642 93.871 19.8567 93.871 21.07V26.25H91.778V24.885C91.5753 25.3633 91.2533 25.7425 90.812 26.0225C90.3708 26.2908 89.846 26.425 89.2378 26.425ZM89.7029 24.92C90.2873 24.92 90.7703 24.7217 91.1519 24.325C91.5455 23.9283 91.7422 23.4267 91.7422 22.82V22.435H91.134C90.013 22.435 89.2318 22.5225 88.7906 22.6975C88.3612 22.8608 88.1466 23.1642 88.1466 23.6075C88.1466 23.9925 88.2837 24.3075 88.558 24.5525C88.8323 24.7975 89.2139 24.92 89.7029 24.92Z" fill="black"/>
<path d="M96.1406 26.25V17.6925H98.323V19.0225C98.6212 18.5325 99.0207 18.1592 99.5216 17.9025C100.034 17.6458 100.607 17.5175 101.239 17.5175C103.302 17.5175 104.333 18.69 104.333 21.035V26.25H102.097V21.14C102.097 20.475 101.966 19.9908 101.704 19.6875C101.453 19.3842 101.06 19.2325 100.523 19.2325C99.8674 19.2325 99.3427 19.4367 98.9491 19.845C98.5675 20.2417 98.3767 20.7725 98.3767 21.4375V26.25H96.1406Z" fill="black"/>
<path d="M109.968 26.425C109.205 26.425 108.531 26.2442 107.946 25.8825C107.374 25.5208 106.927 25.0075 106.605 24.3425C106.283 23.6658 106.122 22.8725 106.122 21.9625C106.122 21.0408 106.283 20.2533 106.605 19.6C106.927 18.935 107.374 18.4217 107.946 18.06C108.531 17.6983 109.205 17.5175 109.968 17.5175C110.588 17.5175 111.148 17.6517 111.649 17.92C112.15 18.1883 112.526 18.5442 112.776 18.9875V13.9125H115.012V26.25H112.83V24.8325C112.591 25.3225 112.216 25.7133 111.703 26.005C111.19 26.285 110.612 26.425 109.968 26.425ZM110.594 24.7625C111.262 24.7625 111.798 24.5292 112.204 24.0625C112.609 23.5842 112.812 22.8842 112.812 21.9625C112.812 21.0292 112.609 20.335 112.204 19.88C111.798 19.4133 111.262 19.18 110.594 19.18C109.926 19.18 109.389 19.4133 108.984 19.88C108.578 20.335 108.376 21.0292 108.376 21.9625C108.376 22.8842 108.578 23.5842 108.984 24.0625C109.389 24.5292 109.926 24.7625 110.594 24.7625Z" fill="black"/>
<path d="M120.712 25.55V21.9975H117.17V20.4575H120.712V17.01H122.358V20.4575H125.9V21.9975H122.358V25.55H120.712Z" fill="black"/>
<path d="M128.272 26.25V13.9125H133.746C135.129 13.9125 136.197 14.2392 136.948 14.8925C137.699 15.5342 138.075 16.4383 138.075 17.605C138.075 18.5267 137.831 19.2908 137.342 19.8975C136.853 20.4925 136.149 20.895 135.231 21.105C135.839 21.2917 136.34 21.7408 136.733 22.4525L138.844 26.25H136.322L134.14 22.3125C133.925 21.9275 133.669 21.665 133.37 21.525C133.084 21.385 132.714 21.315 132.261 21.315H130.562V26.25H128.272ZM130.562 19.6525H133.352C135.022 19.6525 135.857 18.9875 135.857 17.6575C135.857 16.3392 135.022 15.68 133.352 15.68H130.562V19.6525Z" fill="black"/>
</g>
</svg>
