<svg width="141" height="40" viewBox="0 0 141 40" fill="none" xmlns="http://www.w3.org/2000/svg">
<g style="mix-blend-mode:luminosity" opacity="0.5">
<path opacity="0.15" d="M27.0688 20C24.6137 22.813 21.0459 24.5834 17.0749 24.5834C13.1038 24.5834 9.53593 22.813 7.08081 20C9.53593 17.187 13.1038 15.4167 17.0749 15.4167C21.0459 15.4167 24.6137 17.187 27.0688 20Z" fill="black"/>
<path fill-rule="evenodd" clip-rule="evenodd" d="M3.66663 29.1667C3.66663 21.5728 9.66965 15.4167 17.0747 15.4167C13.1037 15.4167 9.5359 17.187 7.08078 20C9.5359 22.813 13.1037 24.5834 17.0747 24.5834C21.0458 24.5834 24.6136 22.813 27.0687 20C29.1918 22.4327 30.4828 25.6451 30.4828 29.1667V34.3611C30.4828 35.0361 29.9492 35.5833 29.291 35.5833H4.85846C4.20023 35.5833 3.66663 35.0361 3.66663 34.3611V29.1667Z" fill="#7CD4FD"/>
<path fill-rule="evenodd" clip-rule="evenodd" d="M12.0455 23.5834C10.131 22.7884 8.4363 21.5531 7.08078 20C9.5359 17.187 13.1037 15.4167 17.0747 15.4167C21.0458 15.4167 24.6136 17.187 27.0687 20C29.1918 17.5674 30.4828 14.355 30.4828 10.8334V5.63891C30.4828 4.9639 29.9492 4.41669 29.291 4.41669H4.85846C4.20023 4.41669 3.66663 4.96389 3.66663 5.63891V10.8334C3.66663 16.6034 7.13236 21.5433 12.0455 23.5834Z" fill="#0BA5EC"/>
<path d="M51.4259 13.2397V27.0833H48.7183V21.1928H42.9356V27.0833H40.228V13.2397H42.9356V18.9318H48.7183V13.2397H51.4259Z" fill="black"/>
<path d="M58.8487 27.2618C57.8173 27.2618 56.8889 27.0305 56.0638 26.5677C55.2386 26.0917 54.5875 25.424 54.1104 24.5645C53.6462 23.7051 53.4142 22.7134 53.4142 21.5895C53.4142 20.4656 53.6527 19.474 54.1297 18.6145C54.6197 17.7551 55.2837 17.094 56.1218 16.6312C56.9599 16.1552 57.8946 15.9172 58.9261 15.9172C59.9576 15.9172 60.8924 16.1552 61.7304 16.6312C62.5685 17.094 63.2261 17.7551 63.7031 18.6145C64.1931 19.474 64.4381 20.4656 64.4381 21.5895C64.4381 22.7134 64.1866 23.7051 63.6838 24.5645C63.1938 25.424 62.5234 26.0917 61.6724 26.5677C60.8343 27.0305 59.8931 27.2618 58.8487 27.2618ZM58.8487 24.8422C59.3387 24.8422 59.7964 24.7232 60.2219 24.4852C60.6603 24.234 61.0084 23.8637 61.2663 23.3745C61.5241 22.8853 61.6531 22.2903 61.6531 21.5895C61.6531 20.545 61.3823 19.745 60.8408 19.1897C60.3122 18.6211 59.661 18.3368 58.8874 18.3368C58.1138 18.3368 57.4627 18.6211 56.9341 19.1897C56.4183 19.745 56.1605 20.545 56.1605 21.5895C56.1605 22.6341 56.4119 23.4406 56.9147 24.0092C57.4305 24.5645 58.0751 24.8422 58.8487 24.8422Z" fill="black"/>
<path d="M76.539 16.0957V27.0833H73.8121V25.695C73.4639 26.171 73.0062 26.5478 72.4389 26.8255C71.8845 27.09 71.2785 27.2222 70.6209 27.2222C69.7829 27.2222 69.0415 27.0437 68.3968 26.6867C67.7521 26.3165 67.2428 25.781 66.8689 25.0802C66.5079 24.3662 66.3274 23.52 66.3274 22.5415V16.0957H69.035V22.1448C69.035 23.0175 69.2478 23.6918 69.6733 24.1678C70.0988 24.6306 70.679 24.862 71.4139 24.862C72.1617 24.862 72.7484 24.6306 73.1738 24.1678C73.5993 23.6918 73.8121 23.0175 73.8121 22.1448V16.0957H76.539Z" fill="black"/>
<path d="M81.9183 17.8013C82.2664 17.2196 82.7177 16.7634 83.2721 16.4328C83.8394 16.1023 84.4841 15.937 85.2061 15.937V18.8525H84.4905C83.6396 18.8525 82.9949 19.0575 82.5565 19.4673C82.131 19.8772 81.9183 20.5912 81.9183 21.6093V27.0833H79.2106V16.0957H81.9183V17.8013Z" fill="black"/>
<path d="M91.2266 15.9172C92.0259 15.9172 92.7286 16.0825 93.3346 16.413C93.9406 16.7303 94.4177 17.1468 94.7658 17.6625V16.0957H97.4928V27.1627C97.4928 28.1808 97.2929 29.0865 96.8932 29.8798C96.4935 30.6864 95.894 31.3211 95.0946 31.7838C94.2952 32.2598 93.3282 32.4978 92.1936 32.4978C90.6721 32.4978 89.4215 32.1342 88.4416 31.407C87.4746 30.6798 86.9266 29.6881 86.7976 28.432H89.4859C89.6278 28.9345 89.9308 29.3311 90.3949 29.622C90.872 29.9261 91.4457 30.0782 92.1162 30.0782C92.9027 30.0782 93.5409 29.8336 94.0309 29.3443C94.5208 28.8683 94.7658 28.1411 94.7658 27.1627V25.457C94.4177 25.9727 93.9342 26.4024 93.3153 26.7462C92.7093 27.09 92.0131 27.2618 91.2266 27.2618C90.324 27.2618 89.4988 27.0238 88.751 26.5478C88.0032 26.0718 87.4101 25.4041 86.9717 24.5447C86.5462 23.672 86.3335 22.6737 86.3335 21.5498C86.3335 20.4392 86.5462 19.4541 86.9717 18.5947C87.4101 17.7352 87.9967 17.0741 88.7317 16.6113C89.4795 16.1486 90.3111 15.9172 91.2266 15.9172ZM94.7658 21.5895C94.7658 20.9152 94.6369 20.34 94.379 19.864C94.1211 19.3748 93.773 19.0046 93.3346 18.7533C92.8963 18.4889 92.4256 18.3567 91.9228 18.3567C91.42 18.3567 90.9558 18.4823 90.5303 18.7335C90.1048 18.9847 89.7567 19.355 89.4859 19.8442C89.2281 20.3202 89.0991 20.8887 89.0991 21.5498C89.0991 22.211 89.2281 22.7927 89.4859 23.2952C89.7567 23.7844 90.1048 24.1612 90.5303 24.4257C90.9687 24.6901 91.4328 24.8223 91.9228 24.8223C92.4256 24.8223 92.8963 24.6967 93.3346 24.4455C93.773 24.1811 94.1211 23.8108 94.379 23.3348C94.6369 22.8456 94.7658 22.2638 94.7658 21.5895Z" fill="black"/>
<path d="M102.845 12.4067V27.0833H100.137V12.4067H102.845Z" fill="black"/>
<path d="M104.824 21.5498C104.824 20.4392 105.037 19.4541 105.462 18.5947C105.901 17.7352 106.487 17.0741 107.222 16.6113C107.97 16.1486 108.802 15.9172 109.717 15.9172C110.517 15.9172 111.213 16.0825 111.806 16.413C112.412 16.7436 112.895 17.1601 113.256 17.6625V16.0957H115.983V27.0833H113.256V25.4768C112.908 25.9925 112.425 26.4222 111.806 26.766C111.2 27.0966 110.497 27.2618 109.698 27.2618C108.795 27.2618 107.97 27.0238 107.222 26.5478C106.487 26.0718 105.901 25.4041 105.462 24.5447C105.037 23.672 104.824 22.6737 104.824 21.5498ZM113.256 21.5895C113.256 20.9152 113.128 20.34 112.87 19.864C112.612 19.3748 112.264 19.0046 111.825 18.7533C111.387 18.4889 110.916 18.3567 110.413 18.3567C109.911 18.3567 109.446 18.4823 109.021 18.7335C108.596 18.9847 108.247 19.355 107.977 19.8442C107.719 20.3202 107.59 20.8887 107.59 21.5498C107.59 22.211 107.719 22.7927 107.977 23.2952C108.247 23.7844 108.596 24.1612 109.021 24.4257C109.459 24.6901 109.924 24.8223 110.413 24.8223C110.916 24.8223 111.387 24.6967 111.825 24.4455C112.264 24.1811 112.612 23.8108 112.87 23.3348C113.128 22.8456 113.256 22.2638 113.256 21.5895Z" fill="black"/>
<path d="M122.728 27.2618C121.851 27.2618 121.065 27.1032 120.369 26.7858C119.672 26.4553 119.118 26.0123 118.705 25.457C118.306 24.9017 118.086 24.2868 118.048 23.6125H120.775C120.826 24.0356 121.026 24.386 121.374 24.6637C121.735 24.9413 122.18 25.0802 122.709 25.0802C123.224 25.0802 123.624 24.9744 123.908 24.7628C124.204 24.5513 124.353 24.2802 124.353 23.9497C124.353 23.5927 124.172 23.3282 123.811 23.1563C123.463 22.9712 122.902 22.7729 122.129 22.5613C121.329 22.363 120.672 22.1581 120.156 21.9465C119.653 21.735 119.215 21.411 118.841 20.9747C118.48 20.5383 118.299 19.95 118.299 19.2095C118.299 18.6013 118.467 18.046 118.802 17.5435C119.15 17.0411 119.64 16.6444 120.272 16.3535C120.917 16.0626 121.671 15.9172 122.535 15.9172C123.811 15.9172 124.83 16.2477 125.59 16.9088C126.351 17.5567 126.77 18.436 126.848 19.5467H124.256C124.217 19.1103 124.037 18.7666 123.714 18.5153C123.405 18.2509 122.986 18.1187 122.457 18.1187C121.967 18.1187 121.587 18.2112 121.316 18.3963C121.058 18.5815 120.929 18.8393 120.929 19.1698C120.929 19.5401 121.11 19.8243 121.471 20.0227C121.832 20.2078 122.393 20.3995 123.154 20.5978C123.927 20.7962 124.565 21.0011 125.068 21.2127C125.571 21.4242 126.003 21.7548 126.364 22.2043C126.738 22.6407 126.931 23.2225 126.944 23.9497C126.944 24.5843 126.77 25.1529 126.422 25.6553C126.087 26.1578 125.597 26.5545 124.952 26.8453C124.32 27.123 123.579 27.2618 122.728 27.2618Z" fill="black"/>
<path d="M133.267 27.2618C132.39 27.2618 131.604 27.1032 130.907 26.7858C130.211 26.4553 129.657 26.0123 129.244 25.457C128.844 24.9017 128.625 24.2868 128.587 23.6125H131.314C131.365 24.0356 131.565 24.386 131.913 24.6637C132.274 24.9413 132.719 25.0802 133.248 25.0802C133.763 25.0802 134.163 24.9744 134.447 24.7628C134.743 24.5513 134.892 24.2802 134.892 23.9497C134.892 23.5927 134.711 23.3282 134.35 23.1563C134.002 22.9712 133.441 22.7729 132.667 22.5613C131.868 22.363 131.21 22.1581 130.695 21.9465C130.192 21.735 129.753 21.411 129.38 20.9747C129.019 20.5383 128.838 19.95 128.838 19.2095C128.838 18.6013 129.006 18.046 129.341 17.5435C129.689 17.0411 130.179 16.6444 130.811 16.3535C131.455 16.0626 132.21 15.9172 133.074 15.9172C134.35 15.9172 135.369 16.2477 136.129 16.9088C136.89 17.5567 137.309 18.436 137.386 19.5467H134.795C134.756 19.1103 134.576 18.7666 134.253 18.5153C133.944 18.2509 133.525 18.1187 132.996 18.1187C132.506 18.1187 132.126 18.2112 131.855 18.3963C131.597 18.5815 131.468 18.8393 131.468 19.1698C131.468 19.5401 131.649 19.8243 132.01 20.0227C132.371 20.2078 132.932 20.3995 133.692 20.5978C134.466 20.7962 135.104 21.0011 135.607 21.2127C136.11 21.4242 136.542 21.7548 136.903 22.2043C137.277 22.6407 137.47 23.2225 137.483 23.9497C137.483 24.5843 137.309 25.1529 136.961 25.6553C136.626 26.1578 136.136 26.5545 135.491 26.8453C134.859 27.123 134.118 27.2618 133.267 27.2618Z" fill="black"/>
</g>
</svg>
