<svg width="141" height="40" viewBox="0 0 141 40" fill="none" xmlns="http://www.w3.org/2000/svg">
<g style="mix-blend-mode:luminosity" opacity="0.5">
<path d="M41.4436 20.177C41.4436 27.95 35.1186 34.2604 27.3051 34.2604C19.4915 34.2604 13.1665 27.95 13.1665 20.177C13.1665 12.404 19.4915 6.09369 27.3051 6.09369C35.1186 6.09369 41.4436 12.404 41.4436 20.177Z" stroke="#6927DA" stroke-width="3"/>
<path d="M32.777 25.6296C29.88 28.5163 26.613 30.3846 23.7322 31.1227C20.8136 31.8706 18.5861 31.4094 17.3096 30.1374C16.0331 28.8654 15.5702 26.6458 16.3207 23.7375C17.0615 20.8669 18.9364 17.6113 21.8334 14.7246C24.7303 11.8379 27.9974 9.96957 30.8782 9.23141C33.7968 8.48356 36.0243 8.9448 37.3008 10.2168C38.5772 11.4888 39.0401 13.7084 38.2896 16.6167C37.5488 19.4873 35.674 22.7428 32.777 25.6296Z" stroke="#6927DA" stroke-width="3"/>
<path d="M32.7767 14.7246C35.6737 17.6113 37.5486 20.8668 38.2894 23.7375C39.0399 26.6457 38.577 28.8654 37.3005 30.1374C36.024 31.4093 33.7965 31.8706 30.878 31.1227C27.9971 30.3846 24.7301 28.5163 21.8331 25.6295C18.9362 22.7428 17.0613 19.4873 16.3205 16.6167C15.57 13.7084 16.0329 11.4887 17.3093 10.2168C18.5858 8.94479 20.8133 8.48354 23.7319 9.23139C26.6127 9.96955 29.8798 11.8378 32.7767 14.7246Z" stroke="#6927DA" stroke-width="3"/>
<path d="M56.3429 27.2534C59.691 27.2534 61.9515 25.5109 61.9515 22.7271C61.9515 16.8409 54.1037 19.3484 54.1037 16.2459C54.1037 15.3746 54.8928 14.7796 56.151 14.7796C57.5798 14.7796 58.4754 15.5446 58.5821 16.7134H61.6316C61.5463 13.8871 59.3711 12.0384 56.151 12.0384C53.1228 12.0384 50.9902 13.7809 50.9902 16.2459C50.9902 22.0896 58.7313 19.8584 58.7313 22.7696C58.7313 23.8959 57.7717 24.4909 56.3429 24.4909C54.7648 24.4909 53.7625 23.5346 53.6346 22.0259H50.5637C50.6917 25.1921 52.9522 27.2534 56.3429 27.2534Z" fill="black"/>
<path d="M62.6768 31.4184H65.641V26.1271C66.2168 26.8496 67.2617 27.2534 68.4773 27.2534C71.5694 27.2534 73.6593 25.0646 73.6593 21.7284C73.6593 18.3921 71.74 16.2034 68.7332 16.2034C67.347 16.2034 66.2808 16.7134 65.641 17.5421V16.3734H62.6768V31.4184ZM68.1147 24.7034C66.5153 24.7034 65.4704 23.5134 65.4704 21.7284C65.4704 19.9221 66.5153 18.7321 68.1147 18.7321C69.6715 18.7321 70.7377 19.9221 70.7377 21.7284C70.7377 23.5134 69.6715 24.7034 68.1147 24.7034Z" fill="black"/>
<path d="M74.3765 27.0834H77.3408V21.2184C77.3408 19.8371 78.2577 18.8384 79.5586 18.8384C80.7955 18.8384 81.6485 19.7734 81.6485 21.0696V27.0834H84.6127V20.4109C84.6127 17.9459 83.0346 16.2034 80.6249 16.2034C79.1321 16.2034 77.9592 16.8196 77.3408 17.8609V11.7196H74.3765V27.0834Z" fill="black"/>
<path d="M92.9049 23.4496C92.6703 24.3634 91.8813 24.8309 90.6871 24.8309C89.1943 24.8309 88.2347 23.8959 88.0214 22.3871H95.7412C95.7625 22.1534 95.7838 21.8346 95.7838 21.4309C95.7838 18.9871 94.2697 16.2034 90.4738 16.2034C86.8272 16.2034 85.1638 18.9871 85.1638 21.7071C85.1638 24.4059 87.0404 27.2534 90.6871 27.2534C93.3314 27.2534 95.3786 25.7659 95.8051 23.4496H92.9049ZM90.4738 18.3709C91.9026 18.3709 92.7343 19.3271 92.8196 20.5171H88.064C88.32 19.0296 89.1303 18.3709 90.4738 18.3709Z" fill="black"/>
<path d="M103.558 18.8384V16.3734H102.029C100.728 16.3734 99.9174 16.8196 99.3416 18.1584V16.3734H96.356V27.0834H99.3416V21.8771C99.3416 20.0496 100.003 18.8384 101.474 18.8384H103.558Z" fill="black"/>
<path d="M113.795 16.3734H110.809V22.2384C110.809 23.5984 109.892 24.6184 108.591 24.6184C107.376 24.6184 106.523 23.6834 106.523 22.3871V16.3734H103.558V23.0459C103.558 25.4896 105.136 27.2534 107.546 27.2534C109.018 27.2534 110.212 26.6159 110.809 25.5959V27.0834H113.795V16.3734Z" fill="black"/>
<path d="M115.073 27.0834H118.037V11.7196H115.073V27.0834Z" fill="black"/>
<path d="M126.501 23.4496C126.266 24.3634 125.477 24.8309 124.283 24.8309C122.79 24.8309 121.831 23.8959 121.618 22.3871H129.337C129.359 22.1534 129.38 21.8346 129.38 21.4309C129.38 18.9871 127.866 16.2034 124.07 16.2034C120.423 16.2034 118.76 18.9871 118.76 21.7071C118.76 24.4059 120.637 27.2534 124.283 27.2534C126.928 27.2534 128.975 25.7659 129.401 23.4496H126.501ZM124.07 18.3709C125.499 18.3709 126.33 19.3271 126.416 20.5171H121.66C121.916 19.0296 122.726 18.3709 124.07 18.3709Z" fill="black"/>
</g>
</svg>
