<svg width="140" height="40" viewBox="0 0 140 40" fill="none" xmlns="http://www.w3.org/2000/svg">
<path d="M50.5227 16.9618C50.5227 14.9514 48.6091 12.8429 45.2831 12.8429C41.5532 12.8429 37.458 15.611 36.831 21.1359C36.1902 26.7148 39.6197 29.1939 43.0766 29.1939C46.5335 29.1939 48.3436 27.8306 50.1948 26.0124C48.6029 23.9894 46.5472 24.9243 46.1532 25.1303C45.5011 25.4966 44.7627 25.6777 44.0165 25.6543C42.6826 25.6543 41.3213 25.0486 41.3213 22.5281C49.8682 21.6737 50.5214 18.9596 50.5214 16.9618H50.5227ZM46.2866 17.2922C46.2318 17.9117 45.9874 18.9722 41.6591 19.5665C42.5692 16.287 44.3145 16.0407 45.1161 16.0407C45.2785 16.0333 45.4407 16.0611 45.5915 16.1224C45.7423 16.1837 45.8783 16.277 45.9902 16.396C46.102 16.5149 46.1872 16.6568 46.2399 16.8119C46.2925 16.9669 46.3115 17.1316 46.2954 17.2947L46.2866 17.2922ZM31.8108 17.83L29.8237 24.1528L28.4212 13.1747C25.2922 13.1747 23.6092 15.4339 22.7316 17.8162L20.3081 24.1666L19.9678 17.884C19.7833 14.9639 17.138 13.1872 15 13.1872L17.5855 29.0695C20.8641 29.0569 22.6344 26.8103 23.5606 24.4279L25.6101 19.0287C25.6288 19.2486 27.0262 29.0707 27.0262 29.0707C30.3198 29.0707 32.09 26.9636 33.0387 24.6629L37.6512 13.1885C34.4038 13.1885 32.6922 15.4339 31.8083 17.83H31.8108ZM62.61 12.804C60.5817 12.804 59.0322 13.9198 57.7232 15.5582V15.5457L58.8925 6C56.1973 6 54.0058 8.36977 53.5844 11.8955L51.5574 28.9463C53.1094 28.9463 54.7562 28.4915 55.6413 27.3342C56.4317 28.3671 57.6147 29.1939 59.3712 29.1939C63.9164 29.1939 67.0343 23.8499 67.0343 18.8352C67.0068 14.2615 64.8153 12.8166 62.6237 12.8166L62.61 12.804ZM62.1861 21.0002C61.7124 23.7959 60.1716 25.697 58.6893 25.697C57.2071 25.697 56.5526 25.0223 56.5526 25.0223C56.8393 22.5721 57.0164 21.0693 57.5599 19.7738C58.1034 18.4784 59.3974 16.4127 60.745 16.4127C62.0665 16.4127 62.6648 18.1894 62.1874 20.9989L62.1861 21.0002ZM78.3699 13.1759H75.1984L75.2109 13.0101C75.4291 10.9167 75.919 9.81475 77.5346 9.63507C78.6379 9.5245 79.1278 8.94651 79.25 8.31323L79.6452 6.09549C73.2874 6.05403 71.2753 8.83468 70.7629 13.0792L70.7505 13.1759H70.6819C69.6472 13.1759 68.5053 14.3608 68.3133 15.8623L68.2447 16.4127H70.369L68.5863 31.3148L68.0403 33.9874C68.1089 33.9874 68.1899 34 68.2572 34C71.2367 33.8894 73.144 31.5071 73.5654 28.0492L74.9566 16.4102H75.9539C76.9337 16.4102 78.0782 15.4175 78.2776 13.7652L78.3699 13.1759ZM94.8653 12.8995C91.2039 12.8995 87.747 15.6261 86.6874 19.9108C85.6277 24.1955 87.2334 29.263 92.6213 29.263C98.0092 29.263 101.095 23.9856 101.095 19.5929C101.1 15.2265 98.175 12.8982 94.8665 12.8982L94.8653 12.8995ZM96.3487 20.8607C96.1592 22.8033 95.314 25.751 93.0003 25.751C90.6866 25.751 90.9995 22.3082 91.2238 20.6685C91.4694 18.9194 92.4356 16.4265 94.5174 16.4265C96.3899 16.4265 96.5656 18.6719 96.35 20.862L96.3487 20.8607ZM119.187 17.8162L117.2 24.1389C117.146 23.6426 115.799 13.1608 115.799 13.1608C112.67 13.1608 110.994 15.42 110.117 17.8024L107.693 24.1528C107.681 23.6979 107.353 17.8702 107.353 17.8702C107.156 14.9501 104.513 13.1734 102.366 13.1734L104.938 29.0556C108.217 29.0431 109.987 26.7964 110.913 24.4141L112.955 19.0149C112.968 19.2348 114.371 29.0569 114.371 29.0569C117.665 29.0569 119.428 26.9497 120.384 24.6491L125 13.1747C121.761 13.1747 120.046 15.42 119.175 17.8162H119.187ZM81.3643 6.09298L78.6965 27.8682L78.1505 30.5547C78.2178 30.5547 78.3001 30.5672 78.3674 30.5672C81.2371 30.5258 83.2791 27.9788 83.6618 24.7684L85.1989 12.275C85.6651 8.45898 83.42 6.09047 81.3643 6.09047V6.09298Z" fill="black"/>
</svg>
